<svg id="Layer_1" data-name="Layer 1" xmlns="http://www.w3.org/2000/svg" viewBox="0 0 512 512"><title>icon</title><rect width="512" height="512"/><rect x="50.25" y="51.25" width="409.5" height="409.5" style="fill:#fff"/><path d="M211.6,88.07h88.8L288,200l101.82-46.77L417,237.26,306.91,259.75l75.78,82.88-71,51.5L256,297l-55.65,97.09-71-51.5,75.78-82.88L95,237.26l27.23-84.06L224,200Z"/><line x1="288" y1="201" x2="389" y2="154"/><line x1="287.5" y1="200.5" x2="461" y2="120" style="stroke:#000;stroke-miterlimit:10"/><line x1="306.5" y1="260.5" x2="416.5" y2="237.5" style="stroke:#000;stroke-miterlimit:10"/><line x1="306.5" y1="259.5" x2="460.5" y2="228.5" style="fill:#fff;stroke:#000;stroke-miterlimit:10"/><line x1="224" y1="201" x2="123" y2="154" style="fill:#fff"/><line x1="224" y1="201" x2="51" y2="121" style="stroke:#000;stroke-miterlimit:10"/><line x1="205.5" y1="259.5" x2="51" y2="228" style="stroke:#000;stroke-miterlimit:10"/><rect x="28" y="137" width="100" height="69" transform="translate(79.19 -16.9) rotate(24.82)"/><rect x="37" y="166" width="100" height="69" transform="translate(42.89 -13.56) rotate(11.81)"/><rect x="382" y="137" width="100" height="60" transform="translate(-30.16 197.33) rotate(-24.89)"/><rect x="367" y="177" width="100" height="60" transform="translate(-33.39 89.17) rotate(-11.74)"/><rect x="178.5" y="60.5" width="145" height="64" style="fill:#fff;stroke:#fff;stroke-miterlimit:10"/></svg>